<?xml version="1.0" standalone="no"?>
<!DOCTYPE svg PUBLIC "-//W3C//DTD SVG 20010904//EN"
 "http://www.w3.org/TR/2001/REC-SVG-20010904/DTD/svg10.dtd">
<svg version="1.0" xmlns="http://www.w3.org/2000/svg"
 width="700.000000pt" height="700.000000pt" viewBox="0 0 700.000000 700.000000"
 preserveAspectRatio="xMidYMid meet">
<metadata>
Created by potrace 1.14, written by Peter Selinger 2001-2017
</metadata>
<g transform="translate(0.000000,700.000000) scale(0.100000,-0.100000)"
fill="#000000" stroke="none">
<path d="M3756 6113 c-3 -10 -15 -65 -26 -123 -22 -109 -26 -128 -35 -170 -3
-14 -7 -34 -9 -45 -3 -11 -14 -64 -26 -119 -12 -54 -23 -106 -25 -115 -2 -9
-42 -198 -89 -421 -47 -223 -88 -414 -90 -425 -3 -11 -12 -54 -21 -95 -19 -85
-19 -88 -40 -190 -8 -41 -17 -84 -19 -95 -12 -56 -77 -363 -81 -380 -4 -15
-73 -340 -90 -425 -2 -8 -10 -45 -19 -83 -9 -37 -18 -79 -21 -95 -2 -15 -23
-113 -46 -217 -22 -105 -43 -201 -45 -215 -3 -14 -16 -77 -30 -140 -21 -99
-97 -455 -109 -515 -3 -11 -9 -42 -15 -70 -17 -83 -18 -87 -34 -160 -8 -39
-17 -83 -20 -98 -2 -15 -7 -35 -10 -45 -3 -9 -7 -28 -10 -42 -6 -31 -66 -315
-100 -472 -14 -64 -27 -127 -30 -140 -3 -13 -9 -45 -15 -73 -6 -27 -13 -61
-16 -75 -2 -14 -7 -37 -11 -53 -3 -16 -1 -28 5 -28 6 -1 14 -2 19 -3 4 -1 27
-6 52 -10 25 -4 81 -16 125 -26 44 -10 97 -21 117 -24 21 -3 57 -10 80 -15
143 -32 175 -36 175 -20 0 12 9 56 37 194 3 11 16 72 30 135 14 63 28 131 31
150 3 19 10 51 15 70 5 19 11 46 14 60 2 14 11 57 20 95 8 39 17 82 20 95 3
14 8 36 11 50 3 14 8 39 10 55 3 17 8 37 10 45 2 8 6 26 9 40 2 14 25 122 50
240 26 118 48 224 50 235 2 11 11 52 20 90 13 58 80 373 91 425 11 54 40 191
75 355 23 105 47 222 55 260 29 140 72 346 85 402 6 23 28 129 51 235 22 106
42 198 43 203 2 6 6 28 11 50 4 22 10 49 12 60 2 11 6 31 9 45 3 13 12 56 20
95 9 38 17 77 19 86 2 9 13 59 24 110 11 52 23 110 26 129 3 19 13 62 20 95
12 47 78 355 111 515 3 14 27 130 54 259 28 129 48 236 46 238 -2 2 -14 6 -27
8 -22 4 -46 9 -94 20 -58 12 -234 47 -260 51 -16 3 -46 9 -65 14 -19 5 -50 12
-69 15 -19 3 -38 8 -42 11 -4 2 -10 -4 -13 -13z"/>
<path d="M1393 4433 l-932 -933 930 -927 c511 -511 932 -929 936 -930 5 -2 8
180 7 404 l0 407 -524 523 -524 523 517 517 c285 285 521 523 525 530 7 12 9
810 1 816 -2 2 -423 -417 -936 -930z"/>
<path d="M4666 4960 l0 -411 524 -524 525 -525 -524 -522 -524 -523 -1 -390
c-1 -214 0 -399 2 -410 2 -15 226 203 932 908 512 510 930 932 930 937 0 8
-1855 1870 -1863 1870 -1 0 -2 -185 -1 -410z"/>
</g>
</svg>
